<?xml version="1.0" encoding="UTF-8"?>
<!DOCTYPE svg PUBLIC "-//W3C//DTD SVG 1.1//EN" "http://www.w3.org/Graphics/SVG/1.1/DTD/svg11.dtd">
<svg xmlns="http://www.w3.org/2000/svg" version="1.1" width="512px" height="512px" style="shape-rendering:geometricPrecision; text-rendering:geometricPrecision; image-rendering:optimizeQuality; fill-rule:evenodd; clip-rule:evenodd" xmlns:xlink="http://www.w3.org/1999/xlink">
<g><path style="opacity:0.971" fill="#6f24c4" d="M 134.5,-0.5 C 215.167,-0.5 295.833,-0.5 376.5,-0.5C 383.602,0.705738 390.602,2.3724 397.5,4.5C 302.833,4.5 208.167,4.5 113.5,4.5C 120.398,2.3724 127.398,0.705738 134.5,-0.5 Z"/></g>
<g><path style="opacity:0.987" fill="#7123c2" d="M 113.5,4.5 C 208.167,4.5 302.833,4.5 397.5,4.5C 403.166,5.39037 408.5,7.05704 413.5,9.5C 308.167,9.5 202.833,9.5 97.5,9.5C 102.5,7.05704 107.834,5.39037 113.5,4.5 Z"/></g>
<g><path style="opacity:0.992" fill="#7423bf" d="M 97.5,9.5 C 202.833,9.5 308.167,9.5 413.5,9.5C 420.964,12.0674 427.964,15.4008 434.5,19.5C 315.167,19.5 195.833,19.5 76.5,19.5C 83.0356,15.4008 90.0356,12.0674 97.5,9.5 Z"/></g>
<g><path style="opacity:0.993" fill="#7722bc" d="M 76.5,19.5 C 195.833,19.5 315.167,19.5 434.5,19.5C 438.173,21.0002 441.506,23.0002 444.5,25.5C 318.5,25.5 192.5,25.5 66.5,25.5C 69.4937,23.0002 72.827,21.0002 76.5,19.5 Z"/></g>
<g><path style="opacity:0.994" fill="#7a22b9" d="M 66.5,25.5 C 192.5,25.5 318.5,25.5 444.5,25.5C 448.896,28.0251 452.896,31.0251 456.5,34.5C 322.5,34.5 188.5,34.5 54.5,34.5C 58.1038,31.0251 62.1038,28.0251 66.5,25.5 Z"/></g>
<g><path style="opacity:0.996" fill="#7d21b6" d="M 54.5,34.5 C 188.5,34.5 322.5,34.5 456.5,34.5C 458.858,36.5293 461.192,38.5293 463.5,40.5C 324.833,40.5 186.167,40.5 47.5,40.5C 49.8082,38.5293 52.1415,36.5293 54.5,34.5 Z"/></g>
<g><path style="opacity:0.973" fill="#8121b3" d="M 47.5,40.5 C 186.167,40.5 324.833,40.5 463.5,40.5C 467.544,43.5425 470.877,47.2092 473.5,51.5C 438.5,51.5 403.5,51.5 368.5,51.5C 293.167,51.5 217.833,51.5 142.5,51.5C 107.5,51.5 72.5,51.5 37.5,51.5C 40.1231,47.2092 43.4564,43.5425 47.5,40.5 Z"/></g>
<g><path style="opacity:0.966" fill="#8420b0" d="M 37.5,51.5 C 72.5,51.5 107.5,51.5 142.5,51.5C 133.11,53.1808 123.777,55.5141 114.5,58.5C 86.8333,58.5 59.1667,58.5 31.5,58.5C 32.7805,55.5526 34.7805,53.2193 37.5,51.5 Z"/></g>
<g><path style="opacity:0.966" fill="#8420b0" d="M 368.5,51.5 C 403.5,51.5 438.5,51.5 473.5,51.5C 476.219,53.2193 478.219,55.5526 479.5,58.5C 451.833,58.5 424.167,58.5 396.5,58.5C 387.223,55.5141 377.89,53.1808 368.5,51.5 Z"/></g>
<g><path style="opacity:0.974" fill="#8720ad" d="M 31.5,58.5 C 59.1667,58.5 86.8333,58.5 114.5,58.5C 109.205,61.1473 103.872,63.8139 98.5,66.5C 74.1667,66.5 49.8333,66.5 25.5,66.5C 27.1468,63.5265 29.1468,60.8599 31.5,58.5 Z"/></g>
<g><path style="opacity:0.974" fill="#8720ad" d="M 396.5,58.5 C 424.167,58.5 451.833,58.5 479.5,58.5C 481.853,60.8599 483.853,63.5265 485.5,66.5C 461.167,66.5 436.833,66.5 412.5,66.5C 407.128,63.8139 401.795,61.1473 396.5,58.5 Z"/></g>
<g><path style="opacity:0.975" fill="#8a20aa" d="M 25.5,66.5 C 49.8333,66.5 74.1667,66.5 98.5,66.5C 95.0484,69.3993 91.3817,72.0659 87.5,74.5C 65.1667,74.5 42.8333,74.5 20.5,74.5C 21.6803,71.4604 23.347,68.7937 25.5,66.5 Z"/></g>
<g><path style="opacity:0.975" fill="#8a20aa" d="M 412.5,66.5 C 436.833,66.5 461.167,66.5 485.5,66.5C 487.653,68.7937 489.32,71.4604 490.5,74.5C 468.167,74.5 445.833,74.5 423.5,74.5C 419.618,72.0659 415.952,69.3993 412.5,66.5 Z"/></g>
<g><path style="opacity:0.973" fill="#8e1fa6" d="M 20.5,74.5 C 42.8333,74.5 65.1667,74.5 87.5,74.5C 85.5,77.1667 83.1667,79.5 80.5,81.5C 59.1667,81.5 37.8333,81.5 16.5,81.5C 17.5839,78.9959 18.9172,76.6626 20.5,74.5 Z"/></g>
<g><path style="opacity:0.973" fill="#8e1fa6" d="M 423.5,74.5 C 445.833,74.5 468.167,74.5 490.5,74.5C 492.083,76.6626 493.416,78.9959 494.5,81.5C 473.167,81.5 451.833,81.5 430.5,81.5C 427.833,79.5 425.5,77.1667 423.5,74.5 Z"/></g>
<g><path style="opacity:0.975" fill="#901fa4" d="M 16.5,81.5 C 37.8333,81.5 59.1667,81.5 80.5,81.5C 79.1667,83.5 77.5,85.1667 75.5,86.5C 55.1667,86.5 34.8333,86.5 14.5,86.5C 14.7959,84.597 15.4625,82.9303 16.5,81.5 Z"/></g>
<g><path style="opacity:0.975" fill="#901fa4" d="M 430.5,81.5 C 451.833,81.5 473.167,81.5 494.5,81.5C 495.537,82.9303 496.204,84.597 496.5,86.5C 476.167,86.5 455.833,86.5 435.5,86.5C 433.5,85.1667 431.833,83.5 430.5,81.5 Z"/></g>
<g><path style="opacity:0.981" fill="#921fa3" d="M 14.5,86.5 C 34.8333,86.5 55.1667,86.5 75.5,86.5C 74.8333,87.5 74.1667,88.5 73.5,89.5C 53.1667,89.5 32.8333,89.5 12.5,89.5C 12.9321,88.2905 13.5987,87.2905 14.5,86.5 Z"/></g>
<g><path style="opacity:0.981" fill="#921fa3" d="M 435.5,86.5 C 455.833,86.5 476.167,86.5 496.5,86.5C 497.401,87.2905 498.068,88.2905 498.5,89.5C 478.167,89.5 457.833,89.5 437.5,89.5C 436.833,88.5 436.167,87.5 435.5,86.5 Z"/></g>
<g><path style="opacity:0.978" fill="#941ea1" d="M 12.5,89.5 C 32.8333,89.5 53.1667,89.5 73.5,89.5C 71.5879,91.6572 69.9213,93.9906 68.5,96.5C 48.8333,96.5 29.1667,96.5 9.5,96.5C 10.3052,94.0846 11.3052,91.7513 12.5,89.5 Z"/></g>
<g><path style="opacity:0.978" fill="#941ea1" d="M 437.5,89.5 C 457.833,89.5 478.167,89.5 498.5,89.5C 499.695,91.7513 500.695,94.0846 501.5,96.5C 481.833,96.5 462.167,96.5 442.5,96.5C 441.079,93.9906 439.412,91.6572 437.5,89.5 Z"/></g>
<g><path style="opacity:0.831" fill="#941ea0" d="M 403.5,96.5 C 393.167,96.5 382.833,96.5 372.5,96.5C 379.955,92.1252 387.955,90.9585 396.5,93C 399.281,93.5218 401.615,94.6885 403.5,96.5 Z"/></g>
<g><path style="opacity:0.976" fill="#971e9e" d="M 9.5,96.5 C 29.1667,96.5 48.8333,96.5 68.5,96.5C 66.8333,99.1667 65.1667,101.833 63.5,104.5C 44.5,104.5 25.5,104.5 6.5,104.5C 7.5,101.833 8.5,99.1667 9.5,96.5 Z"/></g>
<g><path style="opacity:0.954" fill="#971e9e" d="M 372.5,96.5 C 382.833,96.5 393.167,96.5 403.5,96.5C 407.704,98.0332 411.037,100.7 413.5,104.5C 396.5,104.5 379.5,104.5 362.5,104.5C 364.963,100.7 368.296,98.0332 372.5,96.5 Z"/></g>
<g><path style="opacity:0.976" fill="#971e9e" d="M 442.5,96.5 C 462.167,96.5 481.833,96.5 501.5,96.5C 502.5,99.1667 503.5,101.833 504.5,104.5C 485.5,104.5 466.5,104.5 447.5,104.5C 445.833,101.833 444.167,99.1667 442.5,96.5 Z"/></g>
<g><path style="opacity:0.981" fill="#9a1d9a" d="M 6.5,104.5 C 25.5,104.5 44.5,104.5 63.5,104.5C 61.8946,107.378 60.5612,110.378 59.5,113.5C 41.1667,113.5 22.8333,113.5 4.5,113.5C 4.75556,110.402 5.42222,107.402 6.5,104.5 Z"/></g>
<g><path style="opacity:0.973" fill="#9a1d9a" d="M 362.5,104.5 C 379.5,104.5 396.5,104.5 413.5,104.5C 415.924,107.008 417.59,110.008 418.5,113.5C 398.167,113.5 377.833,113.5 357.5,113.5C 358.913,110.339 360.58,107.339 362.5,104.5 Z"/></g>
<g><path style="opacity:0.981" fill="#9a1d9a" d="M 447.5,104.5 C 466.5,104.5 485.5,104.5 504.5,104.5C 505.578,107.402 506.244,110.402 506.5,113.5C 488.167,113.5 469.833,113.5 451.5,113.5C 450.439,110.378 449.105,107.378 447.5,104.5 Z"/></g>
<g><path style="opacity:0.976" fill="#9e1d97" d="M 4.5,113.5 C 22.8333,113.5 41.1667,113.5 59.5,113.5C 58.4055,116.682 57.0722,119.682 55.5,122.5C 37.5,122.5 19.5,122.5 1.5,122.5C 2.35998,119.368 3.35998,116.368 4.5,113.5 Z"/></g>
<g><path style="opacity:0.983" fill="#9e1d97" d="M 357.5,113.5 C 377.833,113.5 398.167,113.5 418.5,113.5C 419.417,116.417 420.084,119.417 420.5,122.5C 399.167,122.5 377.833,122.5 356.5,122.5C 356.508,119.455 356.841,116.455 357.5,113.5 Z"/></g>
<g><path style="opacity:0.976" fill="#9e1d97" d="M 451.5,113.5 C 469.833,113.5 488.167,113.5 506.5,113.5C 507.64,116.368 508.64,119.368 509.5,122.5C 491.5,122.5 473.5,122.5 455.5,122.5C 453.928,119.682 452.594,116.682 451.5,113.5 Z"/></g>
<g><path style="opacity:0.982" fill="#a11d94" d="M 1.5,122.5 C 19.5,122.5 37.5,122.5 55.5,122.5C 55.4828,124.565 55.1495,126.565 54.5,128.5C 36.8333,128.5 19.1667,128.5 1.5,128.5C 1.5,126.5 1.5,124.5 1.5,122.5 Z"/></g>
<g><path style="opacity:0.858" fill="#a11d94" d="M 293.5,128.5 C 268.167,128.5 242.833,128.5 217.5,128.5C 242.833,120.5 268.167,120.5 293.5,128.5 Z"/></g>
<g><path style="opacity:0.983" fill="#a11d94" d="M 356.5,122.5 C 377.833,122.5 399.167,122.5 420.5,122.5C 420.795,124.735 420.461,126.735 419.5,128.5C 398.5,128.5 377.5,128.5 356.5,128.5C 356.065,126.297 356.065,124.297 356.5,122.5 Z"/></g>
<g><path style="opacity:0.982" fill="#a11d94" d="M 455.5,122.5 C 473.5,122.5 491.5,122.5 509.5,122.5C 509.5,124.5 509.5,126.5 509.5,128.5C 491.833,128.5 474.167,128.5 456.5,128.5C 455.85,126.565 455.517,124.565 455.5,122.5 Z"/></g>
<g><path style="opacity:0.977" fill="#a41c91" d="M 1.5,128.5 C 19.1667,128.5 36.8333,128.5 54.5,128.5C 53.8333,131.5 53.1667,134.5 52.5,137.5C 34.8333,137.5 17.1667,137.5 -0.5,137.5C -0.5,136.5 -0.5,135.5 -0.5,134.5C 0.166667,132.5 0.833333,130.5 1.5,128.5 Z"/></g>
<g><path style="opacity:0.969" fill="#a41c91" d="M 217.5,128.5 C 242.833,128.5 268.167,128.5 293.5,128.5C 301.381,130.344 308.714,133.344 315.5,137.5C 275.5,137.5 235.5,137.5 195.5,137.5C 202.286,133.344 209.619,130.344 217.5,128.5 Z"/></g>
<g><path style="opacity:0.981" fill="#a41c91" d="M 356.5,128.5 C 377.5,128.5 398.5,128.5 419.5,128.5C 419.595,131.697 418.928,134.697 417.5,137.5C 398.167,137.5 378.833,137.5 359.5,137.5C 357.528,134.916 356.528,131.916 356.5,128.5 Z"/></g>
<g><path style="opacity:0.977" fill="#a41c91" d="M 456.5,128.5 C 474.167,128.5 491.833,128.5 509.5,128.5C 510.167,130.5 510.833,132.5 511.5,134.5C 511.5,135.5 511.5,136.5 511.5,137.5C 493.833,137.5 476.167,137.5 458.5,137.5C 457.833,134.5 457.167,131.5 456.5,128.5 Z"/></g>
<g><path style="opacity:0.975" fill="#a71c8e" d="M -0.5,137.5 C 17.1667,137.5 34.8333,137.5 52.5,137.5C 52.7845,139.415 52.4511,141.081 51.5,142.5C 34.1667,142.5 16.8333,142.5 -0.5,142.5C -0.5,140.833 -0.5,139.167 -0.5,137.5 Z"/></g>
<g><path style="opacity:0.983" fill="#a71c8e" d="M 195.5,137.5 C 235.5,137.5 275.5,137.5 315.5,137.5C 318.992,138.41 321.992,140.076 324.5,142.5C 278.5,142.5 232.5,142.5 186.5,142.5C 189.008,140.076 192.008,138.41 195.5,137.5 Z"/></g>
<g><path style="opacity:0.974" fill="#a71c8e" d="M 359.5,137.5 C 378.833,137.5 398.167,137.5 417.5,137.5C 416.737,139.368 415.737,141.035 414.5,142.5C 397.167,142.5 379.833,142.5 362.5,142.5C 360.75,141.341 359.75,139.674 359.5,137.5 Z"/></g>
<g><path style="opacity:0.975" fill="#a71c8e" d="M 458.5,137.5 C 476.167,137.5 493.833,137.5 511.5,137.5C 511.5,139.167 511.5,140.833 511.5,142.5C 494.167,142.5 476.833,142.5 459.5,142.5C 458.549,141.081 458.216,139.415 458.5,137.5 Z"/></g>
<g><path style="opacity:0.991" fill="#aa1b8b" d="M -0.5,142.5 C 16.8333,142.5 34.1667,142.5 51.5,142.5C 51.5,146.167 51.5,149.833 51.5,153.5C 34.1667,153.5 16.8333,153.5 -0.5,153.5C -0.5,149.833 -0.5,146.167 -0.5,142.5 Z"/></g>
<g><path style="opacity:0.987" fill="#aa1b8b" d="M 186.5,142.5 C 232.5,142.5 278.5,142.5 324.5,142.5C 330.388,145.393 335.722,149.06 340.5,153.5C 283.833,153.5 227.167,153.5 170.5,153.5C 175.278,149.06 180.612,145.393 186.5,142.5 Z"/></g>
<g><path style="opacity:0.949" fill="#aa1b8b" d="M 362.5,142.5 C 379.833,142.5 397.167,142.5 414.5,142.5C 411.011,147.654 406.345,151.321 400.5,153.5C 392.5,153.5 384.5,153.5 376.5,153.5C 370.068,152.067 365.401,148.4 362.5,142.5 Z"/></g>
<g><path style="opacity:0.991" fill="#aa1b8b" d="M 459.5,142.5 C 476.833,142.5 494.167,142.5 511.5,142.5C 511.5,146.167 511.5,149.833 511.5,153.5C 494.167,153.5 476.833,153.5 459.5,153.5C 459.5,149.833 459.5,146.167 459.5,142.5 Z"/></g>
<g><path style="opacity:0.99" fill="#ad1b88" d="M -0.5,153.5 C 16.8333,153.5 34.1667,153.5 51.5,153.5C 51.5,154.833 51.5,156.167 51.5,157.5C 34.1667,157.5 16.8333,157.5 -0.5,157.5C -0.5,156.167 -0.5,154.833 -0.5,153.5 Z"/></g>
<g><path style="opacity:0.989" fill="#ad1b88" d="M 170.5,153.5 C 227.167,153.5 283.833,153.5 340.5,153.5C 342.167,154.5 343.5,155.833 344.5,157.5C 285.167,157.5 225.833,157.5 166.5,157.5C 167.5,155.833 168.833,154.5 170.5,153.5 Z"/></g>
<g><path style="opacity:0.699" fill="#ad1c89" d="M 376.5,153.5 C 384.5,153.5 392.5,153.5 400.5,153.5C 392.491,157.407 384.491,157.407 376.5,153.5 Z"/></g>
<g><path style="opacity:0.99" fill="#ad1b88" d="M 459.5,153.5 C 476.833,153.5 494.167,153.5 511.5,153.5C 511.5,154.833 511.5,156.167 511.5,157.5C 494.167,157.5 476.833,157.5 459.5,157.5C 459.5,156.167 459.5,154.833 459.5,153.5 Z"/></g>
<g><path style="opacity:0.99" fill="#b01b85" d="M -0.5,157.5 C 16.8333,157.5 34.1667,157.5 51.5,157.5C 51.5,161.5 51.5,165.5 51.5,169.5C 34.1667,169.5 16.8333,169.5 -0.5,169.5C -0.5,165.5 -0.5,161.5 -0.5,157.5 Z"/></g>
<g><path style="opacity:0.992" fill="#b01b85" d="M 166.5,157.5 C 225.833,157.5 285.167,157.5 344.5,157.5C 348.93,160.984 352.93,164.984 356.5,169.5C 289.167,169.5 221.833,169.5 154.5,169.5C 158.07,164.984 162.07,160.984 166.5,157.5 Z"/></g>
<g><path style="opacity:0.99" fill="#b01b85" d="M 459.5,157.5 C 476.833,157.5 494.167,157.5 511.5,157.5C 511.5,161.5 511.5,165.5 511.5,169.5C 494.167,169.5 476.833,169.5 459.5,169.5C 459.5,165.5 459.5,161.5 459.5,157.5 Z"/></g>
<g><path style="opacity:0.99" fill="#b41a82" d="M -0.5,169.5 C 16.8333,169.5 34.1667,169.5 51.5,169.5C 51.5,171.5 51.5,173.5 51.5,175.5C 34.1667,175.5 16.8333,175.5 -0.5,175.5C -0.5,173.5 -0.5,171.5 -0.5,169.5 Z"/></g>
<g><path style="opacity:0.981" fill="#b41a82" d="M 154.5,169.5 C 221.833,169.5 289.167,169.5 356.5,169.5C 358.156,171.46 359.823,173.46 361.5,175.5C 329.833,175.5 298.167,175.5 266.5,175.5C 259.167,175.5 251.833,175.5 244.5,175.5C 212.833,175.5 181.167,175.5 149.5,175.5C 151.177,173.46 152.844,171.46 154.5,169.5 Z"/></g>
<g><path style="opacity:0.99" fill="#b41a82" d="M 459.5,169.5 C 476.833,169.5 494.167,169.5 511.5,169.5C 511.5,171.5 511.5,173.5 511.5,175.5C 494.167,175.5 476.833,175.5 459.5,175.5C 459.5,173.5 459.5,171.5 459.5,169.5 Z"/></g>
<g><path style="opacity:0.99" fill="#b81a7e" d="M -0.5,175.5 C 16.8333,175.5 34.1667,175.5 51.5,175.5C 51.5,179.167 51.5,182.833 51.5,186.5C 34.1667,186.5 16.8333,186.5 -0.5,186.5C -0.5,182.833 -0.5,179.167 -0.5,175.5 Z"/></g>
<g><path style="opacity:0.967" fill="#b71a7e" d="M 149.5,175.5 C 181.167,175.5 212.833,175.5 244.5,175.5C 233.768,177.746 223.434,181.413 213.5,186.5C 189.833,186.5 166.167,186.5 142.5,186.5C 144.412,182.583 146.745,178.917 149.5,175.5 Z"/></g>
<g><path style="opacity:0.967" fill="#b71a7e" d="M 266.5,175.5 C 298.167,175.5 329.833,175.5 361.5,175.5C 364.255,178.917 366.588,182.583 368.5,186.5C 344.833,186.5 321.167,186.5 297.5,186.5C 287.566,181.413 277.232,177.746 266.5,175.5 Z"/></g>
<g><path style="opacity:0.99" fill="#b81a7e" d="M 459.5,175.5 C 476.833,175.5 494.167,175.5 511.5,175.5C 511.5,179.167 511.5,182.833 511.5,186.5C 494.167,186.5 476.833,186.5 459.5,186.5C 459.5,182.833 459.5,179.167 459.5,175.5 Z"/></g>
<g><path style="opacity:0.99" fill="#ba1a7c" d="M -0.5,186.5 C 16.8333,186.5 34.1667,186.5 51.5,186.5C 51.5,187.5 51.5,188.5 51.5,189.5C 34.1667,189.5 16.8333,189.5 -0.5,189.5C -0.5,188.5 -0.5,187.5 -0.5,186.5 Z"/></g>
<g><path style="opacity:0.975" fill="#ba1a7c" d="M 142.5,186.5 C 166.167,186.5 189.833,186.5 213.5,186.5C 212.564,187.974 211.23,188.974 209.5,189.5C 186.5,189.5 163.5,189.5 140.5,189.5C 140.932,188.29 141.599,187.29 142.5,186.5 Z"/></g>
<g><path style="opacity:0.975" fill="#ba1a7c" d="M 297.5,186.5 C 321.167,186.5 344.833,186.5 368.5,186.5C 369.401,187.29 370.068,188.29 370.5,189.5C 347.5,189.5 324.5,189.5 301.5,189.5C 299.77,188.974 298.436,187.974 297.5,186.5 Z"/></g>
<g><path style="opacity:0.99" fill="#ba1a7c" d="M 459.5,186.5 C 476.833,186.5 494.167,186.5 511.5,186.5C 511.5,187.5 511.5,188.5 511.5,189.5C 494.167,189.5 476.833,189.5 459.5,189.5C 459.5,188.5 459.5,187.5 459.5,186.5 Z"/></g>
<g><path style="opacity:0.99" fill="#be1978" d="M -0.5,189.5 C 16.8333,189.5 34.1667,189.5 51.5,189.5C 51.5,193.833 51.5,198.167 51.5,202.5C 34.1667,202.5 16.8333,202.5 -0.5,202.5C -0.5,198.167 -0.5,193.833 -0.5,189.5 Z"/></g>
<g><path style="opacity:0.977" fill="#bd1978" d="M 140.5,189.5 C 163.5,189.5 186.5,189.5 209.5,189.5C 204.23,193.431 199.23,197.764 194.5,202.5C 174.167,202.5 153.833,202.5 133.5,202.5C 135.595,197.973 137.928,193.639 140.5,189.5 Z"/></g>
<g><path style="opacity:0.977" fill="#bd1978" d="M 301.5,189.5 C 324.5,189.5 347.5,189.5 370.5,189.5C 373.072,193.639 375.405,197.973 377.5,202.5C 357.167,202.5 336.833,202.5 316.5,202.5C 311.77,197.764 306.77,193.431 301.5,189.5 Z"/></g>
<g><path style="opacity:0.99" fill="#be1978" d="M 459.5,189.5 C 476.833,189.5 494.167,189.5 511.5,189.5C 511.5,193.833 511.5,198.167 511.5,202.5C 494.167,202.5 476.833,202.5 459.5,202.5C 459.5,198.167 459.5,193.833 459.5,189.5 Z"/></g>
<g><path style="opacity:0.99" fill="#c01975" d="M -0.5,202.5 C 16.8333,202.5 34.1667,202.5 51.5,202.5C 51.5,203.167 51.5,203.833 51.5,204.5C 34.1667,204.5 16.8333,204.5 -0.5,204.5C -0.5,203.833 -0.5,203.167 -0.5,202.5 Z"/></g>
<g><path style="opacity:0.98" fill="#c01975" d="M 133.5,202.5 C 153.833,202.5 174.167,202.5 194.5,202.5C 194.167,203.167 193.833,203.833 193.5,204.5C 173.167,204.5 152.833,204.5 132.5,204.5C 132.833,203.833 133.167,203.167 133.5,202.5 Z"/></g>
<g><path style="opacity:0.98" fill="#c01975" d="M 316.5,202.5 C 336.833,202.5 357.167,202.5 377.5,202.5C 377.833,203.167 378.167,203.833 378.5,204.5C 358.167,204.5 337.833,204.5 317.5,204.5C 317.167,203.833 316.833,203.167 316.5,202.5 Z"/></g>
<g><path style="opacity:0.99" fill="#c01975" d="M 459.5,202.5 C 476.833,202.5 494.167,202.5 511.5,202.5C 511.5,203.167 511.5,203.833 511.5,204.5C 494.167,204.5 476.833,204.5 459.5,204.5C 459.5,203.833 459.5,203.167 459.5,202.5 Z"/></g>
<g><path style="opacity:0.99" fill="#c21b72" d="M -0.5,204.5 C 16.8333,204.5 34.1667,204.5 51.5,204.5C 51.5,210.833 51.5,217.167 51.5,223.5C 34.1667,223.5 16.8333,223.5 -0.5,223.5C -0.5,217.167 -0.5,210.833 -0.5,204.5 Z"/></g>
<g><path style="opacity:0.974" fill="#c21b72" d="M 132.5,204.5 C 152.833,204.5 173.167,204.5 193.5,204.5C 188.736,210.363 184.736,216.697 181.5,223.5C 163.167,223.5 144.833,223.5 126.5,223.5C 128.1,217.033 130.1,210.7 132.5,204.5 Z"/></g>
<g><path style="opacity:0.974" fill="#c21b72" d="M 317.5,204.5 C 337.833,204.5 358.167,204.5 378.5,204.5C 380.9,210.7 382.9,217.033 384.5,223.5C 366.167,223.5 347.833,223.5 329.5,223.5C 326.264,216.697 322.264,210.363 317.5,204.5 Z"/></g>
<g><path style="opacity:0.99" fill="#c21b72" d="M 459.5,204.5 C 476.833,204.5 494.167,204.5 511.5,204.5C 511.5,210.833 511.5,217.167 511.5,223.5C 494.167,223.5 476.833,223.5 459.5,223.5C 459.5,217.167 459.5,210.833 459.5,204.5 Z"/></g>
<g><path style="opacity:0.99" fill="#c21f6f" d="M -0.5,223.5 C 16.8333,223.5 34.1667,223.5 51.5,223.5C 51.5,224.167 51.5,224.833 51.5,225.5C 34.1667,225.5 16.8333,225.5 -0.5,225.5C -0.5,224.833 -0.5,224.167 -0.5,223.5 Z"/></g>
<g><path style="opacity:0.979" fill="#c21f6f" d="M 126.5,223.5 C 144.833,223.5 163.167,223.5 181.5,223.5C 181.672,224.492 181.338,225.158 180.5,225.5C 162.5,225.5 144.5,225.5 126.5,225.5C 126.5,224.833 126.5,224.167 126.5,223.5 Z"/></g>
<g><path style="opacity:0.979" fill="#c21f6f" d="M 329.5,223.5 C 347.833,223.5 366.167,223.5 384.5,223.5C 384.5,224.167 384.5,224.833 384.5,225.5C 366.5,225.5 348.5,225.5 330.5,225.5C 329.662,225.158 329.328,224.492 329.5,223.5 Z"/></g>
<g><path style="opacity:0.99" fill="#c21f6f" d="M 459.5,223.5 C 476.833,223.5 494.167,223.5 511.5,223.5C 511.5,224.167 511.5,224.833 511.5,225.5C 494.167,225.5 476.833,225.5 459.5,225.5C 459.5,224.833 459.5,224.167 459.5,223.5 Z"/></g>
<g><path style="opacity:0.99" fill="#c3226d" d="M -0.5,225.5 C 16.8333,225.5 34.1667,225.5 51.5,225.5C 51.5,231.5 51.5,237.5 51.5,243.5C 34.1667,243.5 16.8333,243.5 -0.5,243.5C -0.5,237.5 -0.5,231.5 -0.5,225.5 Z"/></g>
<g><path style="opacity:0.978" fill="#c3226d" d="M 126.5,225.5 C 144.5,225.5 162.5,225.5 180.5,225.5C 178.548,231.357 177.215,237.357 176.5,243.5C 158.833,243.5 141.167,243.5 123.5,243.5C 123.656,237.233 124.656,231.233 126.5,225.5 Z"/></g>
<g><path style="opacity:0.978" fill="#c3226d" d="M 330.5,225.5 C 348.5,225.5 366.5,225.5 384.5,225.5C 386.344,231.233 387.344,237.233 387.5,243.5C 369.833,243.5 352.167,243.5 334.5,243.5C 333.785,237.357 332.452,231.357 330.5,225.5 Z"/></g>
<g><path style="opacity:0.99" fill="#c3226d" d="M 459.5,225.5 C 476.833,225.5 494.167,225.5 511.5,225.5C 511.5,231.5 511.5,237.5 511.5,243.5C 494.167,243.5 476.833,243.5 459.5,243.5C 459.5,237.5 459.5,231.5 459.5,225.5 Z"/></g>
<g><path style="opacity:0.99" fill="#c2266a" d="M -0.5,243.5 C 16.8333,243.5 34.1667,243.5 51.5,243.5C 51.5,244.167 51.5,244.833 51.5,245.5C 34.1667,245.5 16.8333,245.5 -0.5,245.5C -0.5,244.833 -0.5,244.167 -0.5,243.5 Z"/></g>
<g><path style="opacity:0.986" fill="#c2266a" d="M 123.5,243.5 C 141.167,243.5 158.833,243.5 176.5,243.5C 176.167,244.167 175.833,244.833 175.5,245.5C 158.167,245.5 140.833,245.5 123.5,245.5C 123.5,244.833 123.5,244.167 123.5,243.5 Z"/></g>
<g><path style="opacity:0.986" fill="#c2266a" d="M 334.5,243.5 C 352.167,243.5 369.833,243.5 387.5,243.5C 387.5,244.167 387.5,244.833 387.5,245.5C 370.167,245.5 352.833,245.5 335.5,245.5C 335.167,244.833 334.833,244.167 334.5,243.5 Z"/></g>
<g><path style="opacity:0.99" fill="#c2266a" d="M 459.5,243.5 C 476.833,243.5 494.167,243.5 511.5,243.5C 511.5,244.167 511.5,244.833 511.5,245.5C 494.167,245.5 476.833,245.5 459.5,245.5C 459.5,244.833 459.5,244.167 459.5,243.5 Z"/></g>
<g><path style="opacity:0.99" fill="#c32868" d="M -0.5,245.5 C 16.8333,245.5 34.1667,245.5 51.5,245.5C 51.5,250.833 51.5,256.167 51.5,261.5C 34.1667,261.5 16.8333,261.5 -0.5,261.5C -0.5,256.167 -0.5,250.833 -0.5,245.5 Z"/></g>
<g><path style="opacity:0.974" fill="#c32868" d="M 123.5,245.5 C 140.833,245.5 158.167,245.5 175.5,245.5C 175.5,250.833 175.5,256.167 175.5,261.5C 157.833,261.5 140.167,261.5 122.5,261.5C 122.267,256.105 122.6,250.772 123.5,245.5 Z"/></g>
<g><path style="opacity:0.974" fill="#c32868" d="M 335.5,245.5 C 352.833,245.5 370.167,245.5 387.5,245.5C 388.4,250.772 388.733,256.105 388.5,261.5C 370.833,261.5 353.167,261.5 335.5,261.5C 335.5,256.167 335.5,250.833 335.5,245.5 Z"/></g>
<g><path style="opacity:0.99" fill="#c32868" d="M 459.5,245.5 C 476.833,245.5 494.167,245.5 511.5,245.5C 511.5,250.833 511.5,256.167 511.5,261.5C 494.167,261.5 476.833,261.5 459.5,261.5C 459.5,256.167 459.5,250.833 459.5,245.5 Z"/></g>
<g><path style="opacity:0.99" fill="#c42d65" d="M -0.5,261.5 C 16.8333,261.5 34.1667,261.5 51.5,261.5C 51.5,265.167 51.5,268.833 51.5,272.5C 34.1667,272.5 16.8333,272.5 -0.5,272.5C -0.5,268.833 -0.5,265.167 -0.5,261.5 Z"/></g>
<g><path style="opacity:0.983" fill="#c42d64" d="M 122.5,261.5 C 140.167,261.5 157.833,261.5 175.5,261.5C 175.942,265.154 176.276,268.821 176.5,272.5C 158.833,272.5 141.167,272.5 123.5,272.5C 123.677,268.766 123.344,265.099 122.5,261.5 Z"/></g>
<g><path style="opacity:0.983" fill="#c42d64" d="M 335.5,261.5 C 353.167,261.5 370.833,261.5 388.5,261.5C 387.656,265.099 387.323,268.766 387.5,272.5C 369.833,272.5 352.167,272.5 334.5,272.5C 334.724,268.821 335.058,265.154 335.5,261.5 Z"/></g>
<g><path style="opacity:0.99" fill="#c42d65" d="M 459.5,261.5 C 476.833,261.5 494.167,261.5 511.5,261.5C 511.5,265.167 511.5,268.833 511.5,272.5C 494.167,272.5 476.833,272.5 459.5,272.5C 459.5,268.833 459.5,265.167 459.5,261.5 Z"/></g>
<g><path style="opacity:0.99" fill="#c43062" d="M -0.5,272.5 C 16.8333,272.5 34.1667,272.5 51.5,272.5C 51.5,274.833 51.5,277.167 51.5,279.5C 34.1667,279.5 16.8333,279.5 -0.5,279.5C -0.5,277.167 -0.5,274.833 -0.5,272.5 Z"/></g>
<g><path style="opacity:0.977" fill="#c43062" d="M 123.5,272.5 C 141.167,272.5 158.833,272.5 176.5,272.5C 177.612,274.599 178.279,276.933 178.5,279.5C 160.5,279.5 142.5,279.5 124.5,279.5C 124.552,277.097 124.219,274.764 123.5,272.5 Z"/></g>
<g><path style="opacity:0.977" fill="#c43062" d="M 334.5,272.5 C 352.167,272.5 369.833,272.5 387.5,272.5C 386.781,274.764 386.448,277.097 386.5,279.5C 368.5,279.5 350.5,279.5 332.5,279.5C 332.721,276.933 333.388,274.599 334.5,272.5 Z"/></g>
<g><path style="opacity:0.99" fill="#c43062" d="M 459.5,272.5 C 476.833,272.5 494.167,272.5 511.5,272.5C 511.5,274.833 511.5,277.167 511.5,279.5C 494.167,279.5 476.833,279.5 459.5,279.5C 459.5,277.167 459.5,274.833 459.5,272.5 Z"/></g>
<g><path style="opacity:0.99" fill="#c4345f" d="M -0.5,279.5 C 16.8333,279.5 34.1667,279.5 51.5,279.5C 51.5,284.833 51.5,290.167 51.5,295.5C 34.1667,295.5 16.8333,295.5 -0.5,295.5C -0.5,290.167 -0.5,284.833 -0.5,279.5 Z"/></g>
<g><path style="opacity:0.975" fill="#c4345f" d="M 124.5,279.5 C 142.5,279.5 160.5,279.5 178.5,279.5C 180.795,284.765 183.128,290.098 185.5,295.5C 166.5,295.5 147.5,295.5 128.5,295.5C 127.161,290.146 125.828,284.812 124.5,279.5 Z"/></g>
<g><path style="opacity:0.975" fill="#c4345f" d="M 332.5,279.5 C 350.5,279.5 368.5,279.5 386.5,279.5C 385.172,284.812 383.839,290.146 382.5,295.5C 363.5,295.5 344.5,295.5 325.5,295.5C 327.872,290.098 330.205,284.765 332.5,279.5 Z"/></g>
<g><path style="opacity:0.99" fill="#c4345f" d="M 459.5,279.5 C 476.833,279.5 494.167,279.5 511.5,279.5C 511.5,284.833 511.5,290.167 511.5,295.5C 494.167,295.5 476.833,295.5 459.5,295.5C 459.5,290.167 459.5,284.833 459.5,279.5 Z"/></g>
<g><path style="opacity:0.99" fill="#c5375d" d="M -0.5,295.5 C 16.8333,295.5 34.1667,295.5 51.5,295.5C 51.5,296.833 51.5,298.167 51.5,299.5C 34.1667,299.5 16.8333,299.5 -0.5,299.5C -0.5,298.167 -0.5,296.833 -0.5,295.5 Z"/></g>
<g><path style="opacity:0.973" fill="#c5375d" d="M 128.5,295.5 C 147.5,295.5 166.5,295.5 185.5,295.5C 186.488,296.795 187.488,298.128 188.5,299.5C 169.167,299.5 149.833,299.5 130.5,299.5C 129.655,298.329 128.989,296.995 128.5,295.5 Z"/></g>
<g><path style="opacity:0.973" fill="#c5375d" d="M 325.5,295.5 C 344.5,295.5 363.5,295.5 382.5,295.5C 382.011,296.995 381.345,298.329 380.5,299.5C 361.167,299.5 341.833,299.5 322.5,299.5C 323.512,298.128 324.512,296.795 325.5,295.5 Z"/></g>
<g><path style="opacity:0.99" fill="#c5375d" d="M 459.5,295.5 C 476.833,295.5 494.167,295.5 511.5,295.5C 511.5,296.833 511.5,298.167 511.5,299.5C 494.167,299.5 476.833,299.5 459.5,299.5C 459.5,298.167 459.5,296.833 459.5,295.5 Z"/></g>
<g><path style="opacity:0.99" fill="#c53b59" d="M -0.5,299.5 C 16.8333,299.5 34.1667,299.5 51.5,299.5C 51.5,305.833 51.5,312.167 51.5,318.5C 34.1667,318.5 16.8333,318.5 -0.5,318.5C -0.5,312.167 -0.5,305.833 -0.5,299.5 Z"/></g>
<g><path style="opacity:0.978" fill="#c53b59" d="M 130.5,299.5 C 149.833,299.5 169.167,299.5 188.5,299.5C 193.112,306.778 198.779,313.112 205.5,318.5C 183.167,318.5 160.833,318.5 138.5,318.5C 135.009,312.517 132.342,306.183 130.5,299.5 Z"/></g>
<g><path style="opacity:0.978" fill="#c53b59" d="M 322.5,299.5 C 341.833,299.5 361.167,299.5 380.5,299.5C 378.658,306.183 375.991,312.517 372.5,318.5C 350.167,318.5 327.833,318.5 305.5,318.5C 312.221,313.112 317.888,306.778 322.5,299.5 Z"/></g>
<g><path style="opacity:0.99" fill="#c53b59" d="M 459.5,299.5 C 476.833,299.5 494.167,299.5 511.5,299.5C 511.5,305.833 511.5,312.167 511.5,318.5C 494.167,318.5 476.833,318.5 459.5,318.5C 459.5,312.167 459.5,305.833 459.5,299.5 Z"/></g>
<g><path style="opacity:0.99" fill="#c64155" d="M -0.5,318.5 C 16.8333,318.5 34.1667,318.5 51.5,318.5C 51.5,324.167 51.5,329.833 51.5,335.5C 34.1667,335.5 16.8333,335.5 -0.5,335.5C -0.5,329.833 -0.5,324.167 -0.5,318.5 Z"/></g>
<g><path style="opacity:0.969" fill="#c64155" d="M 138.5,318.5 C 160.833,318.5 183.167,318.5 205.5,318.5C 217.239,327.206 230.239,332.873 244.5,335.5C 212.833,335.5 181.167,335.5 149.5,335.5C 145.439,330.103 141.773,324.436 138.5,318.5 Z"/></g>
<g><path style="opacity:0.969" fill="#c64155" d="M 305.5,318.5 C 327.833,318.5 350.167,318.5 372.5,318.5C 369.227,324.436 365.561,330.103 361.5,335.5C 329.833,335.5 298.167,335.5 266.5,335.5C 280.761,332.873 293.761,327.206 305.5,318.5 Z"/></g>
<g><path style="opacity:0.99" fill="#c64155" d="M 459.5,318.5 C 476.833,318.5 494.167,318.5 511.5,318.5C 511.5,324.167 511.5,329.833 511.5,335.5C 494.167,335.5 476.833,335.5 459.5,335.5C 459.5,329.833 459.5,324.167 459.5,318.5 Z"/></g>
<g><path style="opacity:0.99" fill="#c64552" d="M -0.5,335.5 C 16.8333,335.5 34.1667,335.5 51.5,335.5C 51.5,337.167 51.5,338.833 51.5,340.5C 34.1667,340.5 16.8333,340.5 -0.5,340.5C -0.5,338.833 -0.5,337.167 -0.5,335.5 Z"/></g>
<g><path style="opacity:0.98" fill="#c64552" d="M 149.5,335.5 C 181.167,335.5 212.833,335.5 244.5,335.5C 251.833,335.5 259.167,335.5 266.5,335.5C 298.167,335.5 329.833,335.5 361.5,335.5C 360.136,337.191 358.803,338.858 357.5,340.5C 289.5,340.5 221.5,340.5 153.5,340.5C 152.197,338.858 150.864,337.191 149.5,335.5 Z"/></g>
<g><path style="opacity:0.99" fill="#c64552" d="M 459.5,335.5 C 476.833,335.5 494.167,335.5 511.5,335.5C 511.5,337.167 511.5,338.833 511.5,340.5C 494.167,340.5 476.833,340.5 459.5,340.5C 459.5,338.833 459.5,337.167 459.5,335.5 Z"/></g>
<g><path style="opacity:0.99" fill="#c6484f" d="M -0.5,340.5 C 16.8333,340.5 34.1667,340.5 51.5,340.5C 51.5,344.833 51.5,349.167 51.5,353.5C 34.1667,353.5 16.8333,353.5 -0.5,353.5C -0.5,349.167 -0.5,344.833 -0.5,340.5 Z"/></g>
<g><path style="opacity:0.992" fill="#c6484f" d="M 153.5,340.5 C 221.5,340.5 289.5,340.5 357.5,340.5C 353.446,345.221 349.113,349.554 344.5,353.5C 285.167,353.5 225.833,353.5 166.5,353.5C 161.887,349.554 157.554,345.221 153.5,340.5 Z"/></g>
<g><path style="opacity:0.99" fill="#c6484f" d="M 459.5,340.5 C 476.833,340.5 494.167,340.5 511.5,340.5C 511.5,344.833 511.5,349.167 511.5,353.5C 494.167,353.5 476.833,353.5 459.5,353.5C 459.5,349.167 459.5,344.833 459.5,340.5 Z"/></g>
<g><path style="opacity:0.99" fill="#c74c4d" d="M -0.5,353.5 C 16.8333,353.5 34.1667,353.5 51.5,353.5C 51.5,356.167 51.5,358.833 51.5,361.5C 34.1667,361.5 16.8333,361.5 -0.5,361.5C -0.5,358.833 -0.5,356.167 -0.5,353.5 Z"/></g>
<g><path style="opacity:0.988" fill="#c74b4d" d="M 166.5,353.5 C 225.833,353.5 285.167,353.5 344.5,353.5C 341.905,357.126 338.572,359.792 334.5,361.5C 281.833,361.5 229.167,361.5 176.5,361.5C 172.428,359.792 169.095,357.126 166.5,353.5 Z"/></g>
<g><path style="opacity:0.99" fill="#c74c4d" d="M 459.5,353.5 C 476.833,353.5 494.167,353.5 511.5,353.5C 511.5,356.167 511.5,358.833 511.5,361.5C 494.167,361.5 476.833,361.5 459.5,361.5C 459.5,358.833 459.5,356.167 459.5,353.5 Z"/></g>
<g><path style="opacity:0.991" fill="#c84f4c" d="M -0.5,361.5 C 16.8333,361.5 34.1667,361.5 51.5,361.5C 51.5,363.833 51.5,366.167 51.5,368.5C 34.1667,368.5 16.8333,368.5 -0.5,368.5C -0.5,366.167 -0.5,363.833 -0.5,361.5 Z"/></g>
<g><path style="opacity:0.987" fill="#c84f4c" d="M 176.5,361.5 C 229.167,361.5 281.833,361.5 334.5,361.5C 331.725,364.605 328.392,366.938 324.5,368.5C 278.5,368.5 232.5,368.5 186.5,368.5C 182.608,366.938 179.275,364.605 176.5,361.5 Z"/></g>
<g><path style="opacity:0.991" fill="#c84f4c" d="M 459.5,361.5 C 476.833,361.5 494.167,361.5 511.5,361.5C 511.5,363.833 511.5,366.167 511.5,368.5C 494.167,368.5 476.833,368.5 459.5,368.5C 459.5,366.167 459.5,363.833 459.5,361.5 Z"/></g>
<g><path style="opacity:0.978" fill="#c9544b" d="M -0.5,368.5 C 16.8333,368.5 34.1667,368.5 51.5,368.5C 52.6167,372.295 53.2833,376.295 53.5,380.5C 35.8333,380.5 18.1667,380.5 0.5,380.5C 0.767809,378.901 0.434475,377.568 -0.5,376.5C -0.5,373.833 -0.5,371.167 -0.5,368.5 Z"/></g>
<g><path style="opacity:0.977" fill="#c9544b" d="M 186.5,368.5 C 232.5,368.5 278.5,368.5 324.5,368.5C 316.876,373.811 308.543,377.811 299.5,380.5C 270.167,380.5 240.833,380.5 211.5,380.5C 202.457,377.811 194.124,373.811 186.5,368.5 Z"/></g>
<g><path style="opacity:0.978" fill="#c9544b" d="M 459.5,368.5 C 476.833,368.5 494.167,368.5 511.5,368.5C 511.5,371.167 511.5,373.833 511.5,376.5C 510.566,377.568 510.232,378.901 510.5,380.5C 492.833,380.5 475.167,380.5 457.5,380.5C 457.717,376.295 458.383,372.295 459.5,368.5 Z"/></g>
<g><path style="opacity:0.968" fill="#ca584a" d="M 0.5,380.5 C 18.1667,380.5 35.8333,380.5 53.5,380.5C 54.3382,380.842 54.6716,381.508 54.5,382.5C 36.8333,382.5 19.1667,382.5 1.5,382.5C 0.661754,382.158 0.32842,381.492 0.5,380.5 Z"/></g>
<g><path style="opacity:0.954" fill="#ca584a" d="M 211.5,380.5 C 240.833,380.5 270.167,380.5 299.5,380.5C 297.786,381.738 295.786,382.405 293.5,382.5C 268.167,382.5 242.833,382.5 217.5,382.5C 215.214,382.405 213.214,381.738 211.5,380.5 Z"/></g>
<g><path style="opacity:0.968" fill="#ca584a" d="M 457.5,380.5 C 475.167,380.5 492.833,380.5 510.5,380.5C 510.672,381.492 510.338,382.158 509.5,382.5C 491.833,382.5 474.167,382.5 456.5,382.5C 456.328,381.508 456.662,380.842 457.5,380.5 Z"/></g>
<g><path style="opacity:0.981" fill="#cb5b4a" d="M 1.5,382.5 C 19.1667,382.5 36.8333,382.5 54.5,382.5C 55.3234,385.461 55.99,388.461 56.5,391.5C 38.5,391.5 20.5,391.5 2.5,391.5C 1.70105,388.57 1.36772,385.57 1.5,382.5 Z"/></g>
<g><path style="opacity:0.858" fill="#cb5a4a" d="M 217.5,382.5 C 242.833,382.5 268.167,382.5 293.5,382.5C 268.167,390.5 242.833,390.5 217.5,382.5 Z"/></g>
<g><path style="opacity:0.981" fill="#cb5b4a" d="M 456.5,382.5 C 474.167,382.5 491.833,382.5 509.5,382.5C 509.632,385.57 509.299,388.57 508.5,391.5C 490.5,391.5 472.5,391.5 454.5,391.5C 455.01,388.461 455.677,385.461 456.5,382.5 Z"/></g>
<g><path style="opacity:0.977" fill="#cd6048" d="M 2.5,391.5 C 20.5,391.5 38.5,391.5 56.5,391.5C 58.5375,395.261 60.2042,399.261 61.5,403.5C 42.8333,403.5 24.1667,403.5 5.5,403.5C 4.5,399.5 3.5,395.5 2.5,391.5 Z"/></g>
<g><path style="opacity:0.977" fill="#cd6048" d="M 454.5,391.5 C 472.5,391.5 490.5,391.5 508.5,391.5C 507.5,395.5 506.5,399.5 505.5,403.5C 486.833,403.5 468.167,403.5 449.5,403.5C 450.796,399.261 452.462,395.261 454.5,391.5 Z"/></g>
<g><path style="opacity:0.977" fill="#cf6747" d="M 5.5,403.5 C 24.1667,403.5 42.8333,403.5 61.5,403.5C 64.4032,407.63 67.0699,411.963 69.5,416.5C 49.8333,416.5 30.1667,416.5 10.5,416.5C 8.6371,412.245 6.97044,407.912 5.5,403.5 Z"/></g>
<g><path style="opacity:0.977" fill="#cf6747" d="M 449.5,403.5 C 468.167,403.5 486.833,403.5 505.5,403.5C 504.03,407.912 502.363,412.245 500.5,416.5C 480.833,416.5 461.167,416.5 441.5,416.5C 443.93,411.963 446.597,407.63 449.5,403.5 Z"/></g>
<g><path style="opacity:0.978" fill="#d16d46" d="M 10.5,416.5 C 30.1667,416.5 49.8333,416.5 69.5,416.5C 72.4268,420.767 75.7602,424.767 79.5,428.5C 58.1667,428.5 36.8333,428.5 15.5,428.5C 13.8333,424.5 12.1667,420.5 10.5,416.5 Z"/></g>
<g><path style="opacity:0.978" fill="#d16d46" d="M 441.5,416.5 C 461.167,416.5 480.833,416.5 500.5,416.5C 498.833,420.5 497.167,424.5 495.5,428.5C 474.167,428.5 452.833,428.5 431.5,428.5C 435.24,424.767 438.573,420.767 441.5,416.5 Z"/></g>
<g><path style="opacity:0.973" fill="#d37345" d="M 15.5,428.5 C 36.8333,428.5 58.1667,428.5 79.5,428.5C 83.5259,432.195 87.5259,435.862 91.5,439.5C 68.5,439.5 45.5,439.5 22.5,439.5C 19.9308,436.039 17.5974,432.372 15.5,428.5 Z"/></g>
<g><path style="opacity:0.973" fill="#d37345" d="M 431.5,428.5 C 452.833,428.5 474.167,428.5 495.5,428.5C 493.403,432.372 491.069,436.039 488.5,439.5C 465.5,439.5 442.5,439.5 419.5,439.5C 423.474,435.862 427.474,432.195 431.5,428.5 Z"/></g>
<g><path style="opacity:0.975" fill="#d57943" d="M 22.5,439.5 C 45.5,439.5 68.5,439.5 91.5,439.5C 98.2024,443.515 104.869,447.515 111.5,451.5C 84.5,451.5 57.5,451.5 30.5,451.5C 27.3401,447.852 24.6735,443.852 22.5,439.5 Z"/></g>
<g><path style="opacity:0.975" fill="#d57943" d="M 419.5,439.5 C 442.5,439.5 465.5,439.5 488.5,439.5C 486.327,443.852 483.66,447.852 480.5,451.5C 453.5,451.5 426.5,451.5 399.5,451.5C 406.131,447.515 412.798,443.515 419.5,439.5 Z"/></g>
<g><path style="opacity:0.954" fill="#d78042" d="M 30.5,451.5 C 57.5,451.5 84.5,451.5 111.5,451.5C 121.538,455.093 131.871,457.593 142.5,459C 217.833,459.667 293.167,459.667 368.5,459C 379.129,457.593 389.462,455.093 399.5,451.5C 426.5,451.5 453.5,451.5 480.5,451.5C 477.179,456.152 473.513,460.485 469.5,464.5C 326.833,464.5 184.167,464.5 41.5,464.5C 37.4874,460.485 33.8207,456.152 30.5,451.5 Z"/></g>
<g><path style="opacity:0.995" fill="#d98641" d="M 41.5,464.5 C 184.167,464.5 326.833,464.5 469.5,464.5C 465.778,469.189 461.445,473.189 456.5,476.5C 322.5,476.5 188.5,476.5 54.5,476.5C 49.5553,473.189 45.222,469.189 41.5,464.5 Z"/></g>
<g><path style="opacity:0.994" fill="#db8c3f" d="M 54.5,476.5 C 188.5,476.5 322.5,476.5 456.5,476.5C 451.804,480.521 446.804,484.188 441.5,487.5C 317.5,487.5 193.5,487.5 69.5,487.5C 64.1955,484.188 59.1955,480.521 54.5,476.5 Z"/></g>
<g><path style="opacity:0.993" fill="#dc913f" d="M 69.5,487.5 C 193.5,487.5 317.5,487.5 441.5,487.5C 436.941,490.947 431.941,493.613 426.5,495.5C 312.5,495.5 198.5,495.5 84.5,495.5C 79.0586,493.613 74.0586,490.947 69.5,487.5 Z"/></g>
<g><path style="opacity:0.994" fill="#de943e" d="M 84.5,495.5 C 198.5,495.5 312.5,495.5 426.5,495.5C 424.151,497.341 421.485,498.674 418.5,499.5C 309.833,499.5 201.167,499.5 92.5,499.5C 89.5152,498.674 86.8485,497.341 84.5,495.5 Z"/></g>
<g><path style="opacity:0.982" fill="#df983d" d="M 92.5,499.5 C 201.167,499.5 309.833,499.5 418.5,499.5C 405.016,505.37 391.016,509.37 376.5,511.5C 295.833,511.5 215.167,511.5 134.5,511.5C 119.984,509.37 105.984,505.37 92.5,499.5 Z"/></g>
</svg>
