<?xml version="1.0" encoding="UTF-8"?>
<!DOCTYPE svg PUBLIC "-//W3C//DTD SVG 1.1//EN" "http://www.w3.org/Graphics/SVG/1.1/DTD/svg11.dtd">
<svg xmlns="http://www.w3.org/2000/svg" version="1.1" width="512px" height="512px" style="shape-rendering:geometricPrecision; text-rendering:geometricPrecision; image-rendering:optimizeQuality; fill-rule:evenodd; clip-rule:evenodd" xmlns:xlink="http://www.w3.org/1999/xlink">
<g><path style="opacity:1" fill="#0077b5" d="M 57.5,-0.5 C 189.5,-0.5 321.5,-0.5 453.5,-0.5C 485.167,6.5 504.5,25.8333 511.5,57.5C 511.5,189.5 511.5,321.5 511.5,453.5C 504.5,485.167 485.167,504.5 453.5,511.5C 321.5,511.5 189.5,511.5 57.5,511.5C 25.8333,504.5 6.5,485.167 -0.5,453.5C -0.5,321.5 -0.5,189.5 -0.5,57.5C 6.5,25.8333 25.8333,6.5 57.5,-0.5 Z"/></g>
<g><path style="opacity:1" fill="#fdfefe" d="M 133.5,95.5 C 158.687,94.3335 175.187,105.667 183,129.5C 184.875,166.292 167.375,183.792 130.5,182C 106.223,173.964 95.0564,157.13 97,131.5C 101.796,111.869 113.963,99.8694 133.5,95.5 Z"/></g>
<g><path style="opacity:1" fill="#fefefe" d="M 271.5,208.5 C 271.17,214.868 271.504,221.202 272.5,227.5C 273.107,227.376 273.44,227.043 273.5,226.5C 281.858,213.636 293.525,205.136 308.5,201C 373.873,188.423 409.04,215.256 414,281.5C 414.667,323.5 414.667,365.5 414,407.5C 413.31,410.196 411.81,412.363 409.5,414C 390.232,415.629 370.898,415.962 351.5,415C 349.714,414.215 348.214,413.049 347,411.5C 345.678,372.251 345.012,332.918 345,293.5C 339.878,259.193 321.378,248.693 289.5,262C 279.086,271.878 273.253,284.044 272,298.5C 271.988,336.251 271.321,373.918 270,411.5C 268.681,413.487 266.848,414.654 264.5,415C 246.5,415.667 228.5,415.667 210.5,415C 207.337,413.52 205.504,411.02 205,407.5C 204.333,340.833 204.333,274.167 205,207.5C 206.167,205 208,203.167 210.5,202C 229.167,201.333 247.833,201.333 266.5,202C 269.493,203.159 271.16,205.325 271.5,208.5 Z"/></g>
<g><path style="opacity:1" fill="#fdfefe" d="M 112.5,201.5 C 130.836,201.333 149.17,201.5 167.5,202C 170.728,203.563 172.895,206.063 174,209.5C 174.667,275.167 174.667,340.833 174,406.5C 173.052,411.237 170.219,414.071 165.5,415C 148.167,415.667 130.833,415.667 113.5,415C 110.244,413.413 108.077,410.913 107,407.5C 106.333,341.167 106.333,274.833 107,208.5C 107.967,205.379 109.8,203.046 112.5,201.5 Z"/></g>
<g><path style="opacity:1" fill="#a1cde3" d="M 271.5,208.5 C 272.167,214.5 272.833,220.5 273.5,226.5C 273.44,227.043 273.107,227.376 272.5,227.5C 271.504,221.202 271.17,214.868 271.5,208.5 Z"/></g>
</svg>
