<?xml version="1.0" encoding="UTF-8"?>
<!DOCTYPE svg PUBLIC "-//W3C//DTD SVG 1.1//EN" "http://www.w3.org/Graphics/SVG/1.1/DTD/svg11.dtd">
<svg xmlns="http://www.w3.org/2000/svg" version="1.1" width="512px" height="512px" style="shape-rendering:geometricPrecision; text-rendering:geometricPrecision; image-rendering:optimizeQuality; fill-rule:evenodd; clip-rule:evenodd" xmlns:xlink="http://www.w3.org/1999/xlink">
<g><path style="opacity:0.99" fill="#03a8f4" d="M 511.5,96.5 C 511.5,97.1667 511.5,97.8333 511.5,98.5C 496.941,118.561 479.775,136.227 460,151.5C 460.973,237.618 432.64,312.285 375,375.5C 316.295,434.832 244.961,464.166 161,463.5C 102.655,463.658 48.8213,448.325 -0.5,417.5C -0.5,416.833 -0.5,416.167 -0.5,415.5C 56.002,421.718 107.002,407.885 152.5,374C 104.498,369.47 72.4985,344.637 56.5,299.5C 71.2739,302.233 85.9405,301.733 100.5,298C 53.6978,284.532 26.8644,253.699 20,205.5C 19.1735,201.459 19.3401,197.459 20.5,193.5C 34.5582,201.263 49.5582,205.43 65.5,206C 33.0077,181.832 18.1744,149.332 21,108.5C 22.4983,93.6721 26.9983,79.8388 34.5,67C 35.1667,66.3333 35.8333,66.3333 36.5,67C 92.0678,133.619 163.401,169.786 250.5,175.5C 242.764,124.485 260.764,85.6513 304.5,59C 345.934,40.2006 384.934,44.2006 421.5,71C 424.667,74.1667 427.833,77.3333 431,80.5C 454.414,75.3632 476.414,66.6965 497,54.5C 490.566,78.6239 476.733,97.4572 455.5,111C 463.972,110.803 472.305,109.469 480.5,107C 491.031,103.99 501.365,100.49 511.5,96.5 Z"/></g>
</svg>
